<?xml version="1.0" encoding="UTF-8"?>
<svg id="Layer_2" data-name="Layer 2" xmlns="http://www.w3.org/2000/svg" xmlns:xlink="http://www.w3.org/1999/xlink" viewBox="0 0 852.08 189.64">
  <defs>
    <style>
      .cls-1 {
        fill: url(#linear-gradient-4);
      }

      .cls-2 {
        fill: url(#linear-gradient-3);
      }

      .cls-3 {
        fill: url(#linear-gradient-2);
      }

      .cls-4, .cls-5, .cls-6 {
        fill: #231f20;
      }

      .cls-7 {
        fill: url(#linear-gradient);
      }

      .cls-5 {
        font-family: Lora-Regular, Lora;
        font-size: 48px;
      }

      .cls-6 {
        font-family: ArialMT, Arial;
        font-size: 18px;
      }

      .cls-8 {
        letter-spacing: .3em;
      }

      .cls-9 {
        letter-spacing: .29em;
      }

      .cls-10 {
        letter-spacing: .29em;
      }

      .cls-11 {
        fill: none;
        stroke: #231f20;
        stroke-miterlimit: 10;
        stroke-width: 3px;
      }

      .cls-12 {
        fill: #caae80;
      }
    </style>
    <linearGradient id="linear-gradient" x1="78.75" y1="98.31" x2="210.15" y2="98.31" gradientUnits="userSpaceOnUse">
      <stop offset="0" stop-color="#f47627"/>
      <stop offset="1" stop-color="#723f2f"/>
    </linearGradient>
    <linearGradient id="linear-gradient-2" x1="0" y1="85.21" x2="105.68" y2="85.21" xlink:href="#linear-gradient"/>
    <linearGradient id="linear-gradient-3" x1="97.58" y1="40.88" x2="176.22" y2="40.88" xlink:href="#linear-gradient"/>
    <linearGradient id="linear-gradient-4" x1="36.06" y1="21.36" x2="108.51" y2="21.36" xlink:href="#linear-gradient"/>
  </defs>
  <g id="Layer_1-2" data-name="Layer 1">
    <path class="cls-4" d="M243.15,84c-3.5-2.15-6.18-5.07-8.04-8.76-1.85-3.69-2.78-7.84-2.78-12.47,0-4.35.9-8.51,2.71-12.47,1.81-3.96,4.51-7.18,8.1-9.65,3.59-2.47,7.93-3.71,13.02-3.71,1.97,0,4.2.3,6.7.89,2.5.6,4.61,1.42,6.35,2.47h.07l-.27-2.88h5.29v16h-4.46c-.6-3.71-2.04-6.55-4.33-8.52-2.29-1.97-5.11-2.98-8.45-3.02-3.02,0-5.59.9-7.69,2.71-2.11,1.81-3.69,4.2-4.74,7.18-1.05,2.98-1.58,6.18-1.58,9.62,0,6.09,1.26,11.01,3.78,14.77,2.52,3.76,6.04,5.63,10.58,5.63,1.46,0,3.15-.16,5.05-.48,1.9-.32,3.44-.78,4.64-1.37v-6.39c0-2.56.09-4.62.27-6.18-1.19.09-2.31.14-3.37.14l-1.79.07v-5.29h18.27v4.53c-1.15.05-2.04.21-2.68.48-.64.27-1.12.84-1.44,1.68-.32.85-.48,2.12-.48,3.81v10.99h-1.65c-1.05,0-2.09.11-3.12.34-1.03.23-2.35.6-3.95,1.1-2.38.69-4.37,1.19-5.98,1.51-1.6.32-3.43.48-5.5.48-4.85,0-9.03-1.08-12.54-3.23Z"/>
    <path class="cls-4" d="M291.64,85.85c-2.5-.92-4.52-2.33-6.08-4.26-1.56-1.92-2.34-4.3-2.34-7.14s1-5.67,2.99-8.07c1.99-2.4,4.57-4.18,7.73-5.32-2.29-2.47-3.81-4.68-4.57-6.63-.76-1.95-1.11-3.99-1.06-6.15.04-3.48,1.26-6.24,3.64-8.28,2.38-2.04,5.54-3.06,9.48-3.06,2.34,0,4.41.49,6.22,1.48,1.81.99,3.22,2.3,4.22,3.95,1.01,1.65,1.51,3.43,1.51,5.36,0,2.66-.93,5.13-2.78,7.42-1.85,2.29-4.22,4.28-7.11,5.98.27.37,1.6,1.73,3.98,4.09,2.38,2.36,4.74,4.64,7.07,6.83h.07c.23-.92.34-2.06.34-3.43,0-1.83-.3-3.14-.89-3.92-.6-.78-1.51-1.21-2.75-1.31v-4.4h11.54v5.15c-.6,0-1.85-.09-3.78-.27v.07c.5,1.15.76,2.54.76,4.19,0,2.56-.44,5.04-1.3,7.42l1.03.89c4.07,3.43,6.89,5.15,8.45,5.15v4.53h-7.35c-.41,0-1.27-.37-2.58-1.1-1.3-.73-2.69-1.67-4.16-2.82-1.83,1.6-3.96,2.84-6.39,3.71-2.43.87-5.08,1.31-7.97,1.31s-5.44-.46-7.93-1.37ZM310.36,79.12l-3.43-3.09c-4.3-3.94-7.97-7.62-10.99-11.06-1.19.96-2.05,2.19-2.58,3.67-.53,1.49-.79,2.85-.79,4.09,0,3.07.81,5.44,2.44,7.11,1.62,1.67,3.88,2.51,6.77,2.51,3.34,0,6.2-1.08,8.59-3.23ZM304.25,52.71c.92-1.95,1.37-3.72,1.37-5.32,0-1.69-.41-3.06-1.24-4.09s-1.92-1.55-3.3-1.55-2.43.55-3.3,1.65c-.87,1.1-1.31,2.61-1.31,4.53,0,1.37.38,2.97,1.13,4.77.76,1.81,1.68,3.4,2.78,4.77,1.65-1.24,2.93-2.83,3.85-4.77Z"/>
    <path class="cls-4" d="M331.1,81.6c1.24-.04,2.17-.19,2.82-.45.64-.25,1.14-.79,1.51-1.61.37-.82.55-2.13.55-3.92v-26.31c0-2.56.09-4.62.27-6.18l-5.15.21v-5.29l19.51-.14c6.18-.04,11.02,1.18,14.53,3.67,3.5,2.5,5.25,6.28,5.25,11.37,0,2.61-.73,5.11-2.2,7.49-1.47,2.38-3.66,4.33-6.59,5.84-2.93,1.51-6.5,2.34-10.71,2.47l-2.68.07-2.27-.07v6.04c0,2.61-.09,4.69-.27,6.25,1.46-.14,3.41-.21,5.84-.21v5.29h-20.4v-4.53ZM357.17,61.02c1.72-1.85,2.58-4.57,2.58-8.14,0-6.78-3.07-10.17-9.2-10.17-1.6,0-2.77.34-3.5,1.03-.73.69-1.1,2.15-1.1,4.4v15.45c.96.14,1.99.21,3.09.21,3.71,0,6.42-.93,8.14-2.78Z"/>
    <path class="cls-4" d="M393.05,81.6c1.24-.04,2.17-.19,2.82-.45.64-.25,1.14-.79,1.51-1.61.37-.82.55-2.13.55-3.92v-26.31c0-2.56.09-4.62.28-6.18l-5.15.21v-5.29h34.34l.41,13.32h-4.53c0-3.39-.81-5.74-2.44-7.04-1.63-1.31-3.58-1.91-5.87-1.82l-2.47.07c-1.1.05-1.97.2-2.61.45-.64.25-1.13.81-1.48,1.68-.34.87-.51,2.15-.51,3.85v11.95h7.07c-.05-.59-.14-2.56-.27-5.91h5.29v16.69h-4.53c0-1.83-.29-3.19-.86-4.09s-1.33-1.45-2.27-1.68c-.94-.23-2.14-.32-3.61-.27h-.82v9.62c0,2.57-.09,4.63-.28,6.18,1.47-.14,3.5-.21,6.11-.21v5.29h-20.67v-4.53Z"/>
    <path class="cls-4" d="M441.55,83.59c-3.57-2.43-6.18-5.54-7.83-9.34-1.65-3.8-2.47-7.85-2.47-12.16,0-4.07.92-8.04,2.75-11.88,1.83-3.85,4.57-7.02,8.21-9.51,3.64-2.5,8.02-3.74,13.15-3.74s9.7,1.25,13.29,3.74c3.59,2.5,6.26,5.67,8,9.51,1.74,3.85,2.61,7.81,2.61,11.88s-.92,7.91-2.75,11.78c-1.83,3.87-4.57,7.06-8.21,9.58-3.64,2.52-8.03,3.78-13.15,3.78-5.5,0-10.03-1.21-13.6-3.64ZM463.11,79.4c1.88-1.88,3.23-4.26,4.05-7.14s1.24-5.88,1.24-9c0-6.5-1.14-11.68-3.43-15.52-2.29-3.85-5.68-5.77-10.17-5.77-3.02,0-5.49.96-7.42,2.88-1.92,1.92-3.3,4.35-4.12,7.28-.82,2.93-1.24,5.98-1.24,9.14s.46,6.41,1.37,9.62c.92,3.21,2.41,5.9,4.5,8.07,2.08,2.18,4.73,3.26,7.93,3.26,2.98,0,5.4-.94,7.28-2.82Z"/>
    <path class="cls-4" d="M492.41,81.49c-3-3.82-4.5-9.01-4.5-15.56v-16.62c0-2.56.09-4.62.28-6.18l-5.15.21v-5.29h19.71v4.53c-1.19.05-2.12.2-2.78.45-.66.25-1.18.79-1.55,1.61s-.55,2.13-.55,3.92v18.89c0,9.71,3.85,14.56,11.54,14.56,3.62,0,6.42-1.24,8.41-3.71,1.99-2.47,2.99-6.14,2.99-10.99v-18c0-3.07.09-5.13.28-6.18l-5.22.21v-5.29h15.94v4.53c-1.24.05-2.18.2-2.82.45-.64.25-1.15.79-1.51,1.61-.37.82-.55,2.13-.55,3.92v17.17c0,7.51-1.73,12.97-5.19,16.38-3.46,3.41-8.14,5.12-14.05,5.12-7.19,0-12.28-1.91-15.28-5.74Z"/>
    <path class="cls-4" d="M551.44,58.72c-1.14-1.47-2.4-3.18-3.78-5.15h-.07l.14,21.29c0,2.57-.09,4.63-.27,6.18,1.46-.14,3.18-.21,5.15-.21v5.29h-15.66v-4.53c1.24-.04,2.17-.19,2.82-.45.64-.25,1.14-.79,1.51-1.61.37-.82.55-2.13.55-3.92l-.14-26.31c0-3.07.09-5.13.27-6.18l-5.22.21v-5.29h10.78l21.02,26.51c1.92,2.52,3.53,4.69,4.81,6.53h.07v-21.77c0-2.98.07-5.04.21-6.18l-5.15.21v-5.29h15.66v4.53c-1.24.05-2.17.2-2.82.45-.64.25-1.15.79-1.51,1.61s-.55,2.13-.55,3.92v38.26h-5.84l-21.98-28.09Z"/>
    <path class="cls-4" d="M589.97,81.6c1.24-.04,2.17-.19,2.82-.45.64-.25,1.14-.79,1.51-1.61.37-.82.55-2.13.55-3.92v-26.31c0-2.56.09-4.62.28-6.18l-5.15.21v-5.29l19.99-.07c5.72,0,10.57,1.13,14.53,3.4s6.91,5.21,8.86,8.83c1.95,3.62,2.92,7.42,2.92,11.4s-.93,7.91-2.78,11.64c-1.85,3.73-4.79,6.81-8.79,9.24-4.01,2.43-9.03,3.64-15.08,3.64h-19.64v-4.53ZM619.1,78.57c2.15-1.69,3.74-3.9,4.77-6.63,1.03-2.72,1.55-5.69,1.55-8.89,0-6.96-1.42-12.11-4.26-15.45-2.84-3.34-6.85-5.01-12.02-5.01-1.56,0-2.67.39-3.33,1.17-.67.78-1,2.34-1,4.67v26.44c0,2.57-.09,4.63-.28,6.18.23-.05.66-.07,1.31-.07l2.95.07c.59.05,1.35.07,2.27.07,3.21,0,5.88-.85,8.04-2.54Z"/>
    <path class="cls-4" d="M637.02,81.39c1.19,0,2.19-.34,2.99-1.03.8-.69,1.43-1.52,1.89-2.51.46-.98,1.03-2.42,1.72-4.29l13.39-36.75h4.81l14.63,37.43c.37.92.76,2.05,1.17,3.4.41,1.35.66,2.48.75,3.4,1.51-.14,2.84-.21,3.98-.21v5.29h-18.48v-4.53c2.2,0,3.3-.92,3.3-2.75,0-.92-.25-2.01-.76-3.3l-1.37-3.78-14.91.27-1.1,3.23c-.14.37-.45,1.19-.93,2.47-.48,1.28-.9,2.31-1.27,3.09,1.46-.14,3.09-.21,4.88-.21v5.49h-14.7v-4.74ZM663.33,66.9l-3.16-8.59c-1.33-3.75-2.2-6.89-2.61-9.41h-.07c-.73,3.3-1.58,6.32-2.54,9.07l-3.09,8.93h11.47Z"/>
    <path class="cls-4" d="M691.35,81.6c1.24-.04,2.17-.19,2.82-.45.64-.25,1.14-.79,1.51-1.61.37-.82.55-2.13.55-3.92v-32.9h-3.16c-2.7.05-4.79.96-6.25,2.75-1.47,1.79-2.2,4.49-2.2,8.1h-4.53l.34-15.52h41.62l.41,15.52h-4.53c0-3.62-.74-6.35-2.23-8.21s-3.56-2.76-6.22-2.71h-3.3v32.21c0,3.07-.09,5.13-.27,6.18,1.51-.14,3.34-.21,5.5-.21v5.29h-20.06v-4.53Z"/>
    <path class="cls-4" d="M727.07,81.6c1.24-.04,2.17-.19,2.82-.45.64-.25,1.14-.79,1.51-1.61.37-.82.55-2.13.55-3.92v-26.31c0-2.56.09-4.62.28-6.18l-5.15.21v-5.29h19.71v4.53c-1.24.05-2.18.2-2.82.45-.64.25-1.15.79-1.51,1.61s-.55,2.13-.55,3.92v26.31c0,2.57-.09,4.63-.28,6.18,1.47-.14,3.18-.21,5.15-.21v5.29h-19.71v-4.53Z"/>
    <path class="cls-4" d="M762.1,83.59c-3.57-2.43-6.18-5.54-7.83-9.34-1.65-3.8-2.47-7.85-2.47-12.16,0-4.07.92-8.04,2.75-11.88,1.83-3.85,4.57-7.02,8.21-9.51,3.64-2.5,8.02-3.74,13.15-3.74s9.7,1.25,13.29,3.74c3.59,2.5,6.26,5.67,8,9.51,1.74,3.85,2.61,7.81,2.61,11.88s-.92,7.91-2.75,11.78c-1.83,3.87-4.57,7.06-8.21,9.58-3.64,2.52-8.03,3.78-13.15,3.78-5.5,0-10.03-1.21-13.6-3.64ZM783.67,79.4c1.88-1.88,3.23-4.26,4.05-7.14s1.24-5.88,1.24-9c0-6.5-1.14-11.68-3.43-15.52-2.29-3.85-5.68-5.77-10.17-5.77-3.02,0-5.49.96-7.42,2.88-1.92,1.92-3.3,4.35-4.12,7.28-.82,2.93-1.24,5.98-1.24,9.14s.46,6.41,1.37,9.62c.92,3.21,2.41,5.9,4.5,8.07,2.08,2.18,4.73,3.26,7.93,3.26,2.98,0,5.4-.94,7.28-2.82Z"/>
    <path class="cls-4" d="M819.38,58.72c-1.14-1.47-2.4-3.18-3.78-5.15h-.07l.14,21.29c0,2.57-.09,4.63-.27,6.18,1.46-.14,3.18-.21,5.15-.21v5.29h-15.66v-4.53c1.24-.04,2.17-.19,2.82-.45.64-.25,1.14-.79,1.51-1.61.37-.82.55-2.13.55-3.92l-.14-26.31c0-3.07.09-5.13.27-6.18l-5.22.21v-5.29h10.78l21.02,26.51c1.92,2.52,3.53,4.69,4.81,6.53h.07v-21.77c0-2.98.07-5.04.21-6.18l-5.15.21v-5.29h15.66v4.53c-1.24.05-2.17.2-2.82.45-.64.25-1.15.79-1.51,1.61s-.55,2.13-.55,3.92v38.26h-5.84l-21.98-28.09Z"/>
    <g>
      <g>
        <path class="cls-7" d="M158.79,153.73c-14.64-.2-31.29-12.31-41.88.85-7.92,9.85-10.62,25.59-21.82,33.07-5.73,3.83-13.75,2.03-16.35-4.37-.03-1.89,3.07-2.38,4.42-2.89,9.44-3.61,16.31-11.05,20.97-20.14,1.33-2.6,3.55-5.35,4.12-8.22,1.04-5.25,1.55-10.66,1.51-16.07.14-8.13-.1-15.66-1.92-23.62,2.34-10.18,6.53-19.19,12.94-26.92,13.3-16.3,30.2-22.54,45.45-35.45,12.49-11.94,19.58-26.66,9.91-43,20.63,12.04,27.36,38.58,15.54,60.6,8.5-3.9,13.07-11.87,16.14-20.05,7.2,29.19-2.11,58.67-30.96,67.05l-12.46,1.88c-5.33.8-10.28,1.61-14.98,4.24,2.46,1.58,4.64-.35,6.45-.21,17.18,1.28,25.66,10.5,31.89,10.71l9.36.32c-8.34,12.96-22.41,22.44-38.32,22.22Z"/>
        <path class="cls-3" d="M45.46,153c-13.45-1.89-24.71-10.17-32.21-21.49l10.32-.56c4.87-.26,19.23-12.48,36.17-10.84-1.15-.85-2.58-2-4.07-2.27l-9.03-1.62c-4.53-.81-8.71-.85-13.21-2.08C5.05,106.42-5.37,74.78,2.59,47.63c3.72,8.06,7.61,15.5,15.5,19.39-2.17-6.05-4.04-11-4.96-16.77-2.74-17.36,7.06-35.76,22.55-44.42-.97,3.3-3.44,6.02-3.43,9.65l.05,10.24c1.74,12.37,13.19,23.76,23.66,30.51,18.1,11.66,34.08,22.15,43.14,43.01,5.36,12.35,7.11,24.94,6.44,38.29-.43,8.57-3.22,20.43-9.33,27.08,2.32-7.03-2.01-13.85-9.3-15.56-7.13-1.67-13.84.58-20.99,2.04l-8.81,1.8-11.66.13Z"/>
        <path class="cls-2" d="M158.92,22.86c-4.21.72-7.26,3.06-9.02,7.06l-6.16,14.05c-4.37,7.19-11.7,11.51-19.4,14.28-11.01,3.96-19.03,9.55-21.49,21.33-9.13-18.67-6-39.46,6.19-55.41,13.54-17.7,40.95-29.09,59.95-16.94,9.18,5.87,9.24,20.61,2.2,30.26,1.47-8.65-3.87-15.6-11.65-17.46-6.69-1.6-12.17-1.98-11.72,3.16,4.13-1.43,7.29-1.75,11.08-.33Z"/>
        <path class="cls-1" d="M96.33,38.47c-3.02-17.37-25.94-24.14-40.38-16.83-7.76,3.93-11.11,12.09-9.2,21.09-3.93-2.52-5.89-6.77-8.13-11.12-3.64-7.08-3.73-16.56,1.87-22.47,3.95-4.17,9.15-6.49,14.54-7.78,19.12-4.55,38.68,2.57,53.48,16.55-5.14,6.39-9.08,12.65-12.18,20.56Z"/>
      </g>
      <path class="cls-12" d="M153.06,85.87c5.99-8.3,26.84-33.1,28.83-43.14-1.24,10.85-23.79,45.7-30.26,54.5,1.77-1.58,35.26-19.73,37.03-21.3-.26,2.59-39.62,22.38-44.21,30.66-7.4,13.35-6.65,8.36-14.82,21.25,2.55,0,23.58-1.15,25.57-2.74-26.48,6.97-39.24,14.67-46.7,35.04,2.52-4.78,6.55-15.55,8.66-20.55,1.54-3.64,3.46-7.11,5.41-10.54,5.57-9.83,12.3-18.94,19.09-27.95,3.82-5.06,7.67-10.1,11.38-15.24Z"/>
      <path class="cls-12" d="M56.01,81.36c-5-5.99-22.41-23.89-24.07-31.13,1.04,7.83,19.86,32.98,25.26,39.33-1.48-1.14-29.44-14.24-30.92-15.37.22,1.87,33.08,16.15,36.91,22.12,6.18,9.63,5.55,6.03,12.37,15.34-2.13,0-19.69-.83-21.35-1.98,22.11,5.03,32.76,10.59,38.99,25.29-2.1-3.45-5.47-11.22-7.23-14.83-1.28-2.63-2.89-5.13-4.52-7.61-4.65-7.09-10.27-13.67-15.94-20.17-3.19-3.65-6.4-7.29-9.5-11Z"/>
    </g>
    <line class="cls-11" x1="237.13" y1="99.14" x2="852.08" y2="97.33"/>
    <text class="cls-5" transform="translate(278.48 147.06)"><tspan class="cls-9" x="0" y="0">F</tspan><tspan class="cls-10" x="40.37" y="0">O</tspan><tspan class="cls-8" x="92.45" y="0">R WELLNESS</tspan></text>
    <text class="cls-6" transform="translate(198.67 21.36)"><tspan x="0" y="0">TM</tspan></text>
  </g>
</svg>